# xmcd CD database file
#
# Track frame offsets:
#	182
#	16235
#	30490
#	44990
#	58882
#	74760
#	88490
#	100252
#	114890
#	128662
#	145765
#	159115
#
# Disc length: 2240 seconds
#
# Revision: 0
# Processed by: cddbd v1.5.1PL2 Copyright (c) Steve Scherf et al.
# Submitted via: CDex 1.51
#
DISCID=a608be0c
DTITLE=Suzanne Klee and Harry Shannon - Old Flames
DYEAR=1982
DGENRE=Country
TTITLE0=I've Turned You To Stone
TTITLE1=Unimportant Love Affair
TTITLE2=Small Two Bedroom Starter
TTITLE3=Tulsa Time
TTITLE4=Old Flames
TTITLE5=Jackson
TTITLE6=Wasn't That Love
TTITLE7=Would You Law With Me (In A Field Of Stone)
TTITLE8=Darlin
TTITLE9=Lisa Ann
TTITLE10=Mammas Don't Let Your Babies Grow Up To Be Cowboys
TTITLE11=Louisiana Saturday Night
EXTD=YEAR: 1982
EXTT0=
EXTT1=
EXTT2=
EXTT3=
EXTT4=
EXTT5=
EXTT6=
EXTT7=
EXTT8=
EXTT9=
EXTT10=
EXTT11=
PLAYORDER=
